<?xml version="1.0" ?><svg id="Icon" viewBox="0 0 64 64" xmlns="http://www.w3.org/2000/svg"><title/><path d="M1,44V29.144C1,13.736,16.536,1,32,1h0C47.464,1,63,13.736,63,29.144V42.975" style="fill:none;stroke-miterlimit:10;stroke-width:2px"/><path d="M58,38V29.144C58,16.4,44,6,32,6S6,16.4,6,29.144v9.841" style="fill:none;stroke-miterlimit:10;stroke-width:2px"/><path d="M8,58.973H3a2,2,0,0,1-2-2V40.988A1.979,1.979,0,0,1,3,39H8Z" style="fill:none;stroke-miterlimit:10;stroke-width:2px"/><path d="M15.106,62.783,8,59V39l7.106-3.783A2,2,0,0,1,18,37.037V60.963A2,2,0,0,1,15.106,62.783Z" style="fill:none;stroke-linecap:round;stroke-linejoin:round;stroke-width:2px"/><path d="M56,58.973h5a2,2,0,0,0,2-2V40.988A1.979,1.979,0,0,0,61,39H56Z" style="fill:none;stroke-miterlimit:10;stroke-width:2px"/><path d="M48.894,62.783,56,59V39l-7.106-3.783A2,2,0,0,0,46,37.037V60.963A2,2,0,0,0,48.894,62.783Z" style="fill:none;stroke-linecap:round;stroke-linejoin:round;stroke-width:2px"/><line style="fill:none;stroke-miterlimit:10;stroke-width:2px" x1="14" x2="14" y1="36" y2="62"/><line style="fill:none;stroke-miterlimit:10;stroke-width:2px" x1="50" x2="50" y1="36" y2="62"/></svg>